<?xml version="1.0" encoding="UTF-8" standalone="no"?>
<!-- Created with Inkscape (http://www.inkscape.org/) -->

<svg
   version="1.1"
   id="svg48"
   width="1200"
   height="1200"
   viewBox="0 0 1200 1200"
   sodipodi:docname="kagube_tear.svg"
   inkscape:version="1.2.2 (b0a8486541, 2022-12-01)"
   xmlns:inkscape="http://www.inkscape.org/namespaces/inkscape"
   xmlns:sodipodi="http://sodipodi.sourceforge.net/DTD/sodipodi-0.dtd"
   xmlns="http://www.w3.org/2000/svg"
   xmlns:svg="http://www.w3.org/2000/svg">
  <defs
     id="defs52" />
  <sodipodi:namedview
     id="namedview50"
     pagecolor="#ffffff"
     bordercolor="#666666"
     borderopacity="1.0"
     inkscape:showpageshadow="2"
     inkscape:pageopacity="0.0"
     inkscape:pagecheckerboard="0"
     inkscape:deskcolor="#d1d1d1"
     showgrid="false"
     inkscape:zoom="0.91192225"
     inkscape:cx="-353.64857"
     inkscape:cy="615.18402"
     inkscape:window-width="3840"
     inkscape:window-height="2091"
     inkscape:window-x="0"
     inkscape:window-y="32"
     inkscape:window-maximized="1"
     inkscape:current-layer="g54" />
  <g
     inkscape:groupmode="layer"
     inkscape:label="Image"
     id="g54">
    <path
       style="fill:#fcfcfd;stroke-width:4"
       d="m 122.90297,1047.6069 c -5.46596,-7.8038 -6.22281,-37.7405 -6.194,-245.00001 0.0188,-135.54772 1.7846,-251.40224 4.14584,-272.01472 22.40176,-195.55693 157.58972,-356.9828 338.39962,-404.0778 12.40864,-3.23204 37.87996,-8.01943 56.60296,-10.63864 l 34.0418,-4.76221 9.38848,10.91476 9.38848,10.91476 -0.0588,450.77693 c -0.0464,355.16244 -1.13104,452.89803 -5.11316,460.77693 -5.0344,9.9607 -5.30508,10.0044 -68.94104,11.1336 -61.17572,1.0854 -64.18388,0.7696 -70.88684,-7.4432 -6.2578,-7.6671 -7.00016,-19.3467 -7.00016,-110.13349 0,-127.643 6.27268,-117.55688 -73.10998,-117.55688 -81.86704,0 -74.89002,-10.7452 -74.89002,115.3368 0,86.64337 -0.98288,104.28637 -6.22682,111.77317 -5.99028,8.5523 -8.64064,8.89 -69.77318,8.89 -61.13254,0 -63.7829,-0.3376 -69.77318,-8.89 z m 497.26294,2.2838 c -4.25864,-5.1247 -5.75656,-29.2447 -6.67956,-107.55625 -1.18504,-100.54556 -1.153,-100.98976 8,-110.84768 6.63052,-7.1412 16.4306,-11.14788 35.1898,-14.38692 53.81272,-9.29164 106.21024,-44.85076 139.55804,-94.70988 32.38716,-48.4228 50.14276,-116.85052 33.837,-130.40328 -5.05732,-4.20344 -30.1022,-5.9584 -106.88736,-7.48976 l -100.28244,-2 -5.05364,-10 c -3.881,-7.6796 -5.06736,-59.48548 -5.11264,-223.26296 -0.0588,-212.97852 0.64136,-225.06322 13.53984,-233.67579 2.42068,-1.61631 98.4512,-2.96631 213.4012,-3 203.70895,-0.0597 209.20245,0.14128 216.99995,7.93875 7.8201,7.82006 7.9984,13.28556 7.9307,243 -0.04,129.25 -1.867,252.1 -4.0642,273 -21.7365,206.76152 -171.63933,377.29717 -363.66877,413.72457 -43.71176,8.292 -69.63524,8.1802 -76.70792,-0.3308 z M 920.55943,454.55729 c 38.90768,-20.11996 39.01256,-77.84389 0.1792,-98.60798 -37.57364,-20.09049 -80.0842,5.94228 -80.04744,49.01974 0.036,41.90588 43.06352,68.62072 79.86832,49.58824 z"
       id="path898" />
    <path
       style="fill:#000000;stroke-width:4;fill-opacity:1"
       d="M 0.67614525,600.49693 V 0.49693464 H 600.67615 1200.6761 V 600.49693 1200.4969 H 600.67615 0.67614525 Z M 262.44933,1047.6069 c 5.24394,-7.4868 6.22682,-25.1298 6.22682,-111.77317 0,-126.082 -6.97702,-115.3368 74.89002,-115.3368 79.38266,0 73.10998,-10.08612 73.10998,117.55688 0,90.78679 0.74236,102.46639 7,110.13349 6.70296,8.2128 9.71112,8.5286 70.88684,7.4432 63.63596,-1.1292 63.90664,-1.1729 68.94104,-11.1336 3.98212,-7.8789 5.06668,-105.61449 5.11316,-460.77693 l 0.059,-450.77693 -9.38848,-10.91476 -9.38848,-10.91476 -34.0418,4.76221 c -18.723,2.61921 -44.19432,7.4066 -56.60296,10.63864 -180.8099,47.095 -315.99786,208.52087 -338.39962,404.0778 -2.36124,20.61248 -4.127,136.467 -4.14584,272.01472 -0.0288,207.25951 0.72804,237.19621 6.194,245.00001 5.99028,8.5523 8.64064,8.89 69.77318,8.89 61.13254,0 63.7829,-0.3376 69.77318,-8.89 z m 434.4245,2.6146 c 165.83252,-31.4579 303.52767,-164.48573 349.57367,-337.72457 16.0401,-60.34752 18.0857,-99.66252 18.1593,-349 0.068,-229.71444 -0.1106,-235.17994 -7.9307,-243 -7.7975,-7.79748 -13.291,-7.99845 -216.99995,-7.93875 -114.95,0.0336 -210.98052,1.38369 -213.4012,3 -12.89848,8.61257 -13.59872,20.69727 -13.53984,233.67579 0.0452,163.77748 1.23164,215.58336 5.11264,223.26296 l 5.05364,10 100.28244,2 c 76.78516,1.53136 101.83004,3.28632 106.88736,7.48976 16.30576,13.55276 -1.44984,81.98048 -33.837,130.40328 -33.3478,49.85912 -85.74532,85.41824 -139.55804,94.70988 -18.7592,3.23904 -28.55928,7.24572 -35.1898,14.38692 -9.153,9.85792 -9.18504,10.30212 -8,110.84768 0.923,78.31155 2.42092,102.43155 6.67956,107.55625 7.07268,8.511 32.99616,8.6228 76.70792,0.3308 z M 869.75491,454.56657 c -38.79916,-16.86708 -38.4194,-81.13318 0.5888,-99.64379 38.05004,-18.05593 79.66576,8.86301 79.66576,51.53147 0,40.36108 -41.22908,65.0778 -80.25456,48.11232 z"
       id="path896" />
    <text
       xml:space="preserve"
       style="font-style:normal;font-weight:normal;font-size:192px;line-height:1.25;font-family:sans-serif;fill:#000000;fill-opacity:1;stroke:none"
       x="938.81702"
       y="594.86621"
       id="text1010"><tspan
         sodipodi:role="line"
         id="tspan1008"
         x="938.81702"
         y="594.86621"
         style="font-size:192px" /></text>
    <path
       style="fill:#000000;stroke:#000000;stroke-width:1px;stroke-linecap:butt;stroke-linejoin:miter;stroke-opacity:1;fill-opacity:1"
       d="m 948.21871,515.76343 c 0,0 -10.85305,43.87106 -16.74796,62.76129 -9.07835,29.09158 18.80859,37.22383 28.22724,37.16892 8.64183,-0.0504 30.27379,-7.91158 13.58885,-46.84491 -16.68495,-38.93334 -25.06813,-53.0853 -25.06813,-53.0853 z"
       id="path1012"
       sodipodi:nodetypes="csssc" />
  </g>
</svg>
